<svg width="48" height="49" viewBox="0 0 48 49" fill="none" xmlns="http://www.w3.org/2000/svg">
<circle cx="23.9584" cy="24.31" r="23.9204" fill="#5CBE3A"/>
<path d="M19.8099 24.8822H21.7332V32.8003C21.7332 32.9566 21.8599 33.0833 22.0162 33.0833H25.2773C25.4336 33.0833 25.5603 32.9566 25.5603 32.8003V24.9195H27.7714C27.9151 24.9195 28.0361 24.8116 28.0525 24.6688L28.3883 21.7538C28.3975 21.6736 28.3721 21.5933 28.3185 21.5331C28.2647 21.4729 28.1879 21.4384 28.1072 21.4384H25.5604V19.6111C25.5604 19.0603 25.857 18.7809 26.442 18.7809C26.5254 18.7809 28.1072 18.7809 28.1072 18.7809C28.2636 18.7809 28.3902 18.6542 28.3902 18.4979V15.8222C28.3902 15.6659 28.2636 15.5392 28.1072 15.5392H25.8123C25.7962 15.5384 25.7602 15.5371 25.7072 15.5371C25.3091 15.5371 23.925 15.6153 22.8317 16.6211C21.6203 17.7356 21.7887 19.0702 21.829 19.3016V21.4383H19.8099C19.6535 21.4383 19.5269 21.565 19.5269 21.7213V24.5991C19.5269 24.7555 19.6535 24.8822 19.8099 24.8822Z" fill="white"/>
</svg>
