<svg width="48" height="49" viewBox="0 0 48 49" fill="none" xmlns="http://www.w3.org/2000/svg">
<circle cx="23.867" cy="24.3772" r="23.8587" fill="#5CBE3A"/>
<path d="M32.6182 20.7531C32.577 19.8182 32.4258 19.1754 32.2092 18.6185C31.9858 18.0273 31.6421 17.4981 31.1917 17.0581C30.7518 16.6112 30.219 16.264 29.6347 16.0441C29.0745 15.8275 28.4351 15.6763 27.5003 15.6351C26.5584 15.5904 26.2594 15.5801 23.8705 15.5801C21.4817 15.5801 21.1827 15.5904 20.2443 15.6316C19.3094 15.6729 18.6667 15.8242 18.1099 16.0406C17.5185 16.264 16.9893 16.6077 16.5493 17.0581C16.1024 17.4981 15.7554 18.0308 15.5353 18.6152C15.3187 19.1754 15.1676 19.8147 15.1263 20.7496C15.0816 21.6914 15.0713 21.9905 15.0713 24.3793C15.0713 26.7682 15.0816 27.0672 15.1228 28.0056C15.1641 28.9404 15.3154 29.5832 15.532 30.1401C15.7554 30.7313 16.1024 31.2606 16.5493 31.7005C16.9893 32.1474 17.522 32.4946 18.1064 32.7145C18.6667 32.9311 19.3059 33.0823 20.2409 33.1235C21.1792 33.1648 21.4783 33.175 23.8672 33.175C26.256 33.175 26.555 33.1648 27.4934 33.1235C28.4283 33.0823 29.071 32.9311 29.6278 32.7145C30.8103 32.2573 31.7452 31.3224 32.2024 30.1401C32.4188 29.5798 32.5701 28.9404 32.6113 28.0056C32.6526 27.0672 32.6629 26.7682 32.6629 24.3793C32.6629 21.9905 32.6594 21.6914 32.6182 20.7531ZM31.0337 27.9368C30.9959 28.7961 30.8515 29.2601 30.7312 29.5695C30.4356 30.336 29.8272 30.9444 29.0607 31.24C28.7513 31.3603 28.284 31.5046 27.428 31.5424C26.5 31.5837 26.2216 31.5939 23.874 31.5939C21.5264 31.5939 21.2446 31.5837 20.3199 31.5424C19.4606 31.5046 18.9965 31.3603 18.6872 31.24C18.3057 31.099 17.9585 30.8756 17.6767 30.5834C17.3846 30.2981 17.1611 29.9544 17.0202 29.573C16.8999 29.2636 16.7555 28.7961 16.7178 27.9403C16.6764 27.0123 16.6662 26.7338 16.6662 24.3862C16.6662 22.0385 16.6764 21.7567 16.7178 20.8321C16.7555 19.9728 16.8999 19.5088 17.0202 19.1995C17.1611 18.8179 17.3846 18.4708 17.6802 18.1889C17.9654 17.8967 18.3091 17.6733 18.6907 17.5324C19 17.4121 19.4675 17.2678 20.3234 17.2299C21.2514 17.1887 21.5299 17.1784 23.8774 17.1784C26.2285 17.1784 26.5068 17.1887 27.4315 17.2299C28.2908 17.2678 28.7548 17.4121 29.0642 17.5324C29.4456 17.6733 29.7928 17.8967 30.0747 18.1889C30.3668 18.4742 30.5902 18.8179 30.7312 19.1995C30.8515 19.5088 30.9959 19.9762 31.0337 20.8321C31.0749 21.7602 31.0853 22.0385 31.0853 24.3862C31.0853 26.7338 31.0749 27.0088 31.0337 27.9368Z" fill="white"/>
<path d="M23.8703 20.2695C21.6026 20.2695 19.7627 22.1093 19.7627 24.3772C19.7627 26.645 21.6026 28.4848 23.8703 28.4848C26.1382 28.4848 27.9779 26.645 27.9779 24.3772C27.9779 22.1093 26.1382 20.2695 23.8703 20.2695ZM23.8703 27.0417C22.3991 27.0417 21.2058 25.8485 21.2058 24.3772C21.2058 22.9059 22.3991 21.7126 23.8703 21.7126C25.3416 21.7126 26.5348 22.9059 26.5348 24.3772C26.5348 25.8485 25.3416 27.0417 23.8703 27.0417Z" fill="white"/>
<path d="M29.0992 20.1074C29.0992 20.6369 28.6698 21.0663 28.1401 21.0663C27.6105 21.0663 27.1812 20.6369 27.1812 20.1074C27.1812 19.5777 27.6105 19.1484 28.1401 19.1484C28.6698 19.1484 29.0992 19.5777 29.0992 20.1074Z" fill="white"/>
</svg>
