<svg width="49" height="49" viewBox="0 0 49 49" fill="none" xmlns="http://www.w3.org/2000/svg">
<circle cx="24.1613" cy="24.3762" r="24.0734" fill="#5CBE3A"/>
<path d="M34.0716 18.2308C33.3345 18.5541 32.549 18.7685 31.7302 18.8725C32.5726 18.3696 33.2155 17.5792 33.5178 16.6265C32.7324 17.0948 31.8652 17.4256 30.941 17.6101C30.1952 16.816 29.1323 16.3242 27.9727 16.3242C25.723 16.3242 23.9118 18.1503 23.9118 20.3889C23.9118 20.711 23.939 21.0207 24.0059 21.3155C20.6276 21.1508 17.6383 19.5316 15.6301 17.0651C15.2795 17.6733 15.0738 18.3696 15.0738 19.1191C15.0738 20.5264 15.7986 21.7739 16.8788 22.4962C16.226 22.4838 15.5855 22.2942 15.0429 21.9957C15.0429 22.0081 15.0429 22.0242 15.0429 22.0403C15.0429 24.015 16.4514 25.6552 18.2986 26.0331C17.9678 26.1235 17.6073 26.1669 17.2331 26.1669C16.973 26.1669 16.7104 26.152 16.4638 26.0975C16.9903 27.7068 18.4844 28.8899 20.2609 28.9283C18.8783 30.0098 17.1229 30.6614 15.2225 30.6614C14.8892 30.6614 14.5696 30.6466 14.25 30.6057C16.05 31.7665 18.1833 32.4293 20.4839 32.4293C27.9616 32.4293 32.0498 26.235 32.0498 20.8658C32.0498 20.6862 32.0436 20.5128 32.0349 20.3406C32.8414 19.7682 33.5191 19.0534 34.0716 18.2308Z" fill="white"/>
</svg>
